<svg xmlns="http://www.w3.org/2000/svg" viewBox="0 0 1200 760" role="img" aria-label="План обустройства комнаты · зонирование, свет и функциональные зоны">
      <defs><pattern id="grid" width="32" height="32" patternUnits="userSpaceOnUse"><path d="M32 0H0V32" fill="none" stroke="#87888C" stroke-opacity=".26" stroke-width="1"/></pattern><filter id="glow"><feGaussianBlur stdDeviation="4"/></filter></defs>
      <rect width="1200" height="760" fill="#F7F3EA"/><rect width="1200" height="760" fill="url(#grid)"/>
      <g fill="none" stroke="#FF6500" stroke-width="4" stroke-linecap="round" stroke-linejoin="round">
        <rect x="130" y="90" width="900" height="560" rx="12"/>
        <path d="M450 90v220h330V90M450 310v340h330M780 90v230h250M780 320v330h250"/>
        <path d="M180 170h220M160 580h220M500 140h220M500 600h220M830 160h150M830 580h150" stroke-dasharray="10 10"/>
        <g fill="#F36A10" stroke="none"><circle cx="450" cy="310" r="8"/><circle cx="780" cy="310" r="8"/></g>
        <g font-size="28" font-weight="700"><text x="210" y="390">КОМНАТА</text><text x="525" y="220">ГАРДЕРОБ</text><text x="535" y="500">РАБОЧАЯ ЗОНА</text><text x="835" y="430">ЛОДЖИЯ</text></g>
        <g font-size="17" fill="#87888C"><text x="210" y="420">18,2 м²</text><text x="525" y="250">4,1 м²</text><text x="535" y="530">8,7 м²</text><text x="835" y="460">3,9 м²</text></g></g>
      <g fill="#FF6500" font-family="Arial, sans-serif"></g>
      <text x="80" y="42" fill="#F36A10" font-family="Arial, sans-serif" font-size="15" font-weight="700" letter-spacing="3">НОВЫЙ ДОМ · ТЕХНИЧЕСКАЯ СХЕМА</text>
      <text x="1120" y="42" fill="#87888C" text-anchor="end" font-family="Arial, sans-serif" font-size="14">ПЛАН / 01</text>
      <text x="80" y="730" fill="#87888C" font-family="Arial, sans-serif" font-size="14">План обустройства комнаты · зонирование, свет и функциональные зоны</text>
      <circle cx="1135" cy="705" r="18" fill="#F36A10" filter="url(#glow)" opacity=".75"/>
    </svg>